
<svg width="35" height="35" viewBox="0 0 35 35" fill="none" xmlns="http://www.w3.org/2000/svg">
<path fill-rule="evenodd" clip-rule="evenodd" d="M17.5 0C7.83417 0 0 7.83563 0 17.5C0 27.1644 7.83417 35 17.5 35C27.1644 35 35 27.1644 35 17.5C35 7.83563 27.1644 0 17.5 0ZM17.7042 27.7346C12.0633 27.7346 7.49583 23.1554 7.49583 17.5C7.49583 11.8446 12.0633 7.26542 17.7042 7.26542C20.4604 7.26542 22.7646 8.28188 24.5321 9.93271L21.6533 12.8173V12.8115C20.5815 11.7877 19.2223 11.2627 17.7042 11.2627C14.3354 11.2627 11.5981 14.1152 11.5981 17.4942C11.5981 20.8702 14.3354 23.7315 17.7042 23.7315C20.7608 23.7315 22.8404 21.9785 23.2692 19.5723H17.7042V15.5808H27.3073C27.4356 16.2663 27.5042 16.9808 27.5042 17.7304C27.5042 23.5783 23.6002 27.7346 17.7042 27.7346V27.7346Z" fill="#53707B"/>
</svg>
