<svg width="37" height="37" viewBox="0 0 37 37" fill="none" xmlns="http://www.w3.org/2000/svg">
<path d="M18.5 0.740005C8.69129 0.740005 0.73999 8.69131 0.73999 18.5C0.73999 28.3087 8.69129 36.26 18.5 36.26C28.3087 36.26 36.26 28.3087 36.26 18.5C36.26 8.69131 28.3087 0.740005 18.5 0.740005ZM14.1525 25.8612H10.5561V14.2876H14.1525V25.8612ZM12.3321 12.8668C11.1962 12.8668 10.4617 12.062 10.4617 11.0667C10.4617 10.0511 11.2184 9.27036 12.3783 9.27036C13.5383 9.27036 14.2487 10.0511 14.2709 11.0667C14.2709 12.062 13.5383 12.8668 12.3321 12.8668ZM27.2875 25.8612H23.6911V19.4472C23.6911 17.9543 23.1694 16.9405 21.8688 16.9405C20.8754 16.9405 20.2852 17.6268 20.0244 18.2873C19.9282 18.5222 19.9041 18.8552 19.9041 19.1864V25.8593H16.3059V17.9783C16.3059 16.5335 16.2596 15.3254 16.2115 14.2857H19.3362L19.5008 15.8934H19.573C20.0466 15.1386 21.2065 14.0249 23.1472 14.0249C25.5133 14.0249 27.2875 15.6103 27.2875 19.018V25.8612Z" fill="#53707B"/>
</svg>
